<svg width="24" height="24" viewBox="0 0 24 24" fill="none" xmlns="http://www.w3.org/2000/svg">
<path d="M12 3.86426C12.9229 3.86426 13.5381 4.50586 13.5381 5.47266V14.2617L13.4502 16.1602L14.7598 14.6045L16.7109 12.6357C16.9922 12.3457 17.3438 12.1348 17.8096 12.1348C18.6357 12.1348 19.2598 12.7324 19.2598 13.6113C19.2598 14.0068 19.0928 14.3936 18.7852 14.7012L13.125 20.3701C12.8525 20.6426 12.4131 20.8184 12 20.8184C11.5869 20.8184 11.1475 20.6426 10.875 20.3701L5.21484 14.7012C4.89844 14.3936 4.74023 14.0068 4.74023 13.6113C4.74023 12.7324 5.36426 12.1348 6.18164 12.1348C6.65625 12.1348 6.99902 12.3457 7.28027 12.6357L9.24902 14.6045L10.5498 16.1602L10.4707 14.2617V5.47266C10.4707 4.50586 11.0771 3.86426 12 3.86426Z" fill="#F95454"/>
</svg>
