<svg width="264" height="264" viewBox="0 0 264 264" fill="none" xmlns="http://www.w3.org/2000/svg">
<path fill-rule="evenodd" clip-rule="evenodd" d="M264 132C264 204.902 204.902 264 132 264C59.0984 264 0 204.902 0 132C0 59.0984 59.0984 0 132 0C204.902 0 264 59.0984 264 132ZM132.001 49.5C126.767 49.5 121.651 49.9928 116.696 50.9347L116.671 50.9396C104.766 53.2064 93.7885 58.0655 84.3283 64.9108C82.8819 65.9574 80.8826 65.7632 79.6647 64.4578V64.4577L70.6241 54.7677C69.8667 54.3548 69.1868 53.7714 68.646 53.0271C68.4088 52.7005 68.2092 52.3581 68.0465 52.0049L67.7004 51.6339C67.6681 51.5993 67.6366 51.5643 67.6058 51.5289C66.2662 49.9899 66.323 47.7248 67.6284 46.2538C67.8192 46.0388 68.0366 45.8408 68.2803 45.6645L69.6728 44.6569C74.3768 41.2532 79.3707 38.2244 84.6098 35.6144C92.4861 31.5923 100.764 28.6506 110.096 26.4039C110.875 26.2163 111.655 26.1901 112.401 26.3037C118.756 25.1193 125.307 24.5 132.001 24.5H133.993C136.3 24.5 138.129 26.4467 137.985 28.7495L136.786 47.9405C136.731 48.8171 136.004 49.5 135.126 49.5H132.001ZM152.664 26.5649C150.506 26.0911 148.413 27.5255 148.004 29.6964L144.854 46.4021C144.445 48.573 145.876 50.6567 148.03 51.1448C161.981 54.3056 174.84 60.1716 185.746 69.7608L190.439 73.8879C191.78 75.0667 193.789 75.0628 195.125 73.8787L208.25 62.2459C210.051 60.6501 210.045 57.8372 208.238 56.2485L206.948 55.1135L202.254 50.9864C187.983 38.438 171.024 30.597 152.664 26.5649ZM214.86 70.6218C216.684 69.3746 219.179 69.8386 220.373 71.6971C229.215 85.4549 235.36 100.463 237.551 116.842L238.38 123.037L238.795 126.134C239.015 127.779 237.744 129.244 236.084 129.259L217.141 129.423C215.355 129.439 213.838 128.122 213.601 126.353L212.772 120.158C211.099 107.655 206.388 96.3194 199.729 85.8177C198.546 83.9521 199.005 81.4669 200.829 80.2197L214.86 70.6218ZM237.85 143.163C238.143 140.973 236.606 138.961 234.416 138.668L217.566 136.413C215.377 136.12 213.364 137.658 213.071 139.847L212.773 142.077C211.568 151.081 208.898 159.614 205.01 167.436L201.226 175.047C200.243 177.025 201.049 179.426 203.027 180.41L218.25 187.977C220.228 188.96 222.629 188.154 223.612 186.176L227.396 178.564C232.483 168.332 235.977 157.164 237.552 145.393L237.85 143.163ZM74.3001 73.3921C75.4716 72.1248 75.394 70.1477 74.1267 68.9761L61.0011 56.8421C59.3789 55.3425 56.8482 55.4418 55.3486 57.064L55.259 57.161C54.6469 57.4751 54.0789 57.9006 53.5858 58.4363C35.1007 78.5152 25 102.507 25 132C25 150.23 31.281 170.332 38.6228 185.162C40.093 188.132 43.6922 189.347 46.662 187.877C47.2697 187.576 47.804 187.186 48.2568 186.731L60.9727 180.41C62.9509 179.426 63.7573 177.025 62.7739 175.047L58.9902 167.436C53.5601 156.513 50.5 144.191 50.5 131.118C50.5 109.709 58.7146 90.2513 72.1787 75.6868L74.3001 73.3921Z" fill="#FAFAFA"/>
</svg>
