<svg width="24" height="24" viewBox="0 0 24 24" fill="none" xmlns="http://www.w3.org/2000/svg">
<path d="M12 20.1357C11.0771 20.1357 10.4619 19.4941 10.4619 18.5273V9.73828L10.5498 7.83984L9.24023 9.39551L7.28906 11.3643C7.00781 11.6543 6.65625 11.8652 6.19043 11.8652C5.36426 11.8652 4.74023 11.2676 4.74023 10.3887C4.74023 9.99316 4.90723 9.60645 5.21484 9.29883L10.875 3.62988C11.1475 3.35742 11.5869 3.18164 12 3.18164C12.4131 3.18164 12.8525 3.35742 13.125 3.62988L18.7852 9.29883C19.1016 9.60645 19.2598 9.99316 19.2598 10.3887C19.2598 11.2676 18.6357 11.8652 17.8184 11.8652C17.3438 11.8652 17.001 11.6543 16.7197 11.3643L14.751 9.39551L13.4502 7.83984L13.5293 9.73828V18.5273C13.5293 19.4941 12.9229 20.1357 12 20.1357Z" fill="#3FAE29"/>
</svg>
