<svg width="75" height="26" viewBox="0 0 75 26" fill="none" xmlns="http://www.w3.org/2000/svg">
<path d="M13.2424 6.9529H10.6577C10.4751 6.95297 10.2942 6.91699 10.1254 6.84701C9.95664 6.77704 9.80328 6.67444 9.67409 6.54509C9.5449 6.41573 9.44242 6.26214 9.37251 6.09311C9.30259 5.92407 9.2666 5.74289 9.2666 5.55992V2.97092C9.2666 2.78795 9.30259 2.60677 9.37251 2.43774C9.44242 2.2687 9.5449 2.11511 9.67409 1.98576C9.80328 1.8564 9.95664 1.7538 10.1254 1.68383C10.2942 1.61386 10.4751 1.57788 10.6577 1.57794H13.2424C13.6111 1.57808 13.9647 1.7249 14.2254 1.98612C14.4861 2.24734 14.6325 2.60157 14.6325 2.97092V5.55992C14.6325 5.92936 14.486 6.28367 14.2252 6.54491C13.9644 6.80614 13.6112 6.9529 13.2424 6.9529Z" fill="#7D8999"/>
<path d="M6.55619 12.7563H3.64872C3.44323 12.7565 3.23972 12.7161 3.04982 12.6375C2.85993 12.5588 2.68737 12.4435 2.54202 12.298C2.39668 12.1525 2.28139 11.9797 2.20275 11.7895C2.12411 11.5994 2.08367 11.3955 2.08374 11.1897V8.27633C2.08387 7.86066 2.24882 7.46207 2.54229 7.16819C2.83577 6.87432 3.23375 6.70923 3.64872 6.70923H6.55619C6.97107 6.70936 7.36893 6.87451 7.66229 7.16837C7.95566 7.46223 8.12053 7.86075 8.12066 8.27633V11.1897C8.12073 11.3955 8.08031 11.5993 8.0017 11.7894C7.9231 11.9796 7.80785 12.1523 7.66256 12.2978C7.51726 12.4433 7.34477 12.5587 7.15493 12.6373C6.96509 12.716 6.76164 12.7564 6.55619 12.7563Z" fill="#7D8999"/>
<path d="M6.27902 18.8014H4.50321C4.37758 18.8014 4.25317 18.7767 4.13709 18.7286C4.02101 18.6805 3.91552 18.6099 3.82667 18.521C3.73781 18.432 3.66732 18.3264 3.61923 18.2101C3.57114 18.0939 3.54639 17.9693 3.54639 17.8434V16.0652C3.54639 15.5347 3.97564 15.1057 4.50321 15.1057H6.27902C6.8071 15.1057 7.23534 15.5347 7.23534 16.0652V17.8434C7.2354 17.9693 7.21071 18.0939 7.16268 18.2101C7.11464 18.3264 7.0442 18.432 6.95538 18.521C6.86657 18.6099 6.76112 18.6805 6.64506 18.7286C6.52901 18.7767 6.40462 18.8014 6.27902 18.8014Z" fill="#7D8999"/>
<path d="M11.0474 24.422H8.94729C8.79884 24.4222 8.65182 24.393 8.51464 24.3361C8.37747 24.2793 8.25283 24.1959 8.14785 24.0908C8.04288 23.9856 7.95964 23.8608 7.9029 23.7234C7.84615 23.586 7.81701 23.4387 7.81714 23.29V21.1868C7.81714 20.5604 8.32343 20.0548 8.94729 20.0548H11.0474C11.6713 20.0548 12.1776 20.5604 12.1776 21.1868V23.2905C12.1776 23.9164 11.6713 24.422 11.0474 24.422ZM18.7421 8.01237H17.2876C17.0801 8.01237 16.8812 7.92986 16.7345 7.78298C16.5877 7.6361 16.5052 7.43686 16.5051 7.22907V5.77365C16.5051 5.34063 16.8548 4.98883 17.2871 4.98883H18.7421C19.1739 4.98883 19.5236 5.34063 19.5236 5.77365V7.22907C19.5236 7.66057 19.1739 8.01237 18.7421 8.01237Z" fill="#7D8999"/>
<path d="M50.5778 8.98451C50.6878 8.98451 50.7966 8.96279 50.8982 8.9206C50.9997 8.87842 51.092 8.81658 51.1696 8.73864C51.2473 8.6607 51.3089 8.56818 51.3508 8.46638C51.3927 8.36458 51.4142 8.2555 51.414 8.14537C51.414 7.97922 51.3648 7.8168 51.2726 7.67868C51.1804 7.54055 51.0494 7.43294 50.8961 7.36945C50.7428 7.30595 50.5742 7.28945 50.4115 7.32201C50.2488 7.35457 50.0995 7.43474 49.9823 7.55237C49.8652 7.67 49.7855 7.8198 49.7534 7.98281C49.7213 8.14582 49.7382 8.31471 49.8019 8.4681C49.8657 8.62149 49.9734 8.75248 50.1116 8.8445C50.2497 8.93652 50.4119 8.98491 50.5778 8.98451Z" fill="#7D8999"/>
<path d="M19.9755 17.9429C19.8458 18.1379 19.635 18.2348 19.4079 18.2348C19.2723 18.2354 19.1387 18.2021 19.0192 18.1379C18.8408 18.0237 18.7111 17.7805 18.7111 17.5368C18.7111 17.4231 18.7435 17.3094 18.8084 17.2119L20.7535 14.1442L18.8084 11.0765C18.7445 10.9743 18.7108 10.856 18.7111 10.7354C18.7111 10.508 18.8246 10.2648 19.0354 10.1506C19.1433 10.0866 19.2664 10.0531 19.3917 10.0536C19.6188 10.0536 19.8458 10.1506 19.9755 10.346L21.5633 12.8619L23.1678 10.346C23.2976 10.1506 23.5246 10.0536 23.7517 10.0536C23.8809 10.0536 23.9949 10.0861 24.1079 10.1506C24.3183 10.2648 24.4318 10.508 24.4318 10.7354C24.4318 10.8491 24.3993 10.9791 24.3345 11.0765L22.3899 14.1442L24.3345 17.2124C24.3993 17.3094 24.4318 17.4231 24.4318 17.5373C24.4318 17.7805 24.302 18.0237 24.1236 18.1379C24.0042 18.2021 23.8705 18.2354 23.7349 18.2348C23.5084 18.2348 23.2976 18.1379 23.1673 17.9429L21.5633 15.4428L19.9755 17.9429ZM26.9085 11.011C27.6723 10.3193 28.6661 9.93737 29.6958 9.9399C30.2478 9.93721 30.7948 10.0441 31.3053 10.2544C31.8158 10.4648 32.2796 10.7744 32.6699 11.1653C33.0602 11.5562 33.3694 12.0208 33.5794 12.5321C33.7894 13.0434 33.8962 13.5913 33.8936 14.1442C33.8936 16.45 32.0301 18.3166 29.6964 18.3166C28.6265 18.3166 27.6378 17.9105 26.909 17.2449V20.8325C26.909 21.1893 26.5846 21.4975 26.2121 21.4975C25.8716 21.4975 25.5315 21.1893 25.5315 20.8325V10.6699C25.5315 10.313 25.8716 10.0044 26.2121 10.0044C26.5846 10.0044 26.9085 10.313 26.9085 10.6694V11.0105V11.011ZM29.6958 11.3359C28.14 11.3359 26.9085 12.5695 26.9085 14.1442C26.9085 15.7027 28.14 16.9363 29.6958 16.9363C31.2684 16.9363 32.4999 15.7027 32.4999 14.1442C32.4999 12.5695 31.2684 11.3364 29.6964 11.3364L29.6958 11.3359ZM45.7587 13.3817V17.5856C45.7587 17.9429 45.4181 18.2506 45.078 18.2506C44.705 18.2506 44.3807 17.9424 44.3807 17.5856V10.6704C44.3807 10.313 44.705 10.0049 45.078 10.0049C45.4024 10.0049 45.7419 10.2968 45.7587 10.6379C46.3258 10.1998 47.055 9.95614 47.8492 9.9399C48.2865 9.9399 48.6104 10.2805 48.6104 10.6217C48.6104 10.9948 48.2708 11.3359 47.8492 11.3359C46.7631 11.3684 45.7587 11.7583 45.7587 13.3817ZM50.5874 10.0049C50.2149 10.0049 49.8905 10.313 49.8905 10.6699V17.5856C49.8905 17.9429 50.2149 18.2506 50.5874 18.2506C50.928 18.2506 51.268 17.9424 51.268 17.5856V10.6704C51.268 10.313 50.928 10.0049 50.5874 10.0049ZM59.3879 10.6699C59.3879 10.313 59.7112 10.0049 60.0842 10.0049C60.4248 10.0049 60.7648 10.313 60.7648 10.6699V17.5856C60.7648 17.9429 60.4248 18.2506 60.0842 18.2506C59.7112 18.2506 59.3879 17.9424 59.3879 17.5856V17.2444C58.6221 17.9338 57.629 18.3152 56.5995 18.3156C56.0476 18.3182 55.5007 18.2114 54.9903 18.0011C54.4799 17.7908 54.0162 17.4813 53.6259 17.0905C53.2357 16.6997 52.9266 16.2352 52.7165 15.724C52.5065 15.2128 52.3997 14.665 52.4022 14.1122C52.4022 11.807 54.2662 9.9399 56.5995 9.9399C57.6693 9.9399 58.6419 10.346 59.3879 11.0115V10.6699ZM56.5995 16.92C58.1553 16.92 59.3879 15.6865 59.3879 14.1117C59.3906 13.7442 59.3203 13.3799 59.1811 13.0398C59.0419 12.6998 58.8366 12.3909 58.5771 12.1311C58.3176 11.8712 58.0092 11.6657 57.6696 11.5264C57.3301 11.3871 56.9664 11.3168 56.5995 11.3197C55.0279 11.3197 53.7969 12.5533 53.7969 14.1117C53.7969 15.6865 55.0279 16.92 56.5995 16.92ZM67.7819 13.4625C67.7819 12.3101 66.7774 11.3034 65.6265 11.3034C64.508 11.3034 63.4711 11.7583 63.4711 13.3812V17.5856C63.4711 17.9429 63.1305 18.2506 62.79 18.2506C62.417 18.2506 62.0936 17.9424 62.0936 17.5856V10.6704C62.0936 10.313 62.4175 10.0049 62.79 10.0049C63.1143 10.0049 63.4549 10.2968 63.4711 10.6379C64.0544 10.1831 64.7999 9.9399 65.6098 9.9399C67.49 9.9399 69.1593 11.4172 69.1593 13.2675V17.5856C69.1593 17.9429 68.8198 18.2511 68.4787 18.2511C68.1057 18.2511 67.7819 17.9429 67.7819 17.5861V13.4625ZM18.328 13.8848C18.2955 11.7578 16.3996 9.94041 14.1631 9.94041C11.8293 9.94041 9.96587 11.807 9.96587 14.1117C9.96318 14.6646 10.0699 15.2125 10.2799 15.7238C10.4899 16.2351 10.7989 16.6997 11.1892 17.0906C11.5795 17.4816 12.0433 17.7912 12.5537 18.0015C13.0642 18.2118 13.6112 18.3188 14.1631 18.3161C15.2811 18.3161 16.319 17.8775 17.064 17.1312C17.21 17.0013 17.3073 16.8063 17.3073 16.6114C17.3073 16.2383 16.9829 15.9139 16.6104 15.9139C16.3996 15.9139 16.205 16.0433 16.0596 16.19C15.5892 16.6926 14.8924 16.92 14.1631 16.92C12.7695 16.92 11.6363 15.9636 11.392 14.6326H17.6478C17.6524 14.6326 17.6565 14.6311 17.661 14.6311H17.6798C17.6914 14.63 17.7031 14.626 17.7152 14.6245C17.7391 14.6209 17.7629 14.6174 17.7862 14.6102C17.9432 14.5652 18.0812 14.4699 18.179 14.3389C18.2769 14.2079 18.3292 14.0484 18.328 13.8848ZM14.1631 11.3202C15.42 11.3202 16.464 12.1273 16.8203 13.2533H11.4898C11.8461 12.1279 12.8916 11.3202 14.1631 11.3202ZM43.2151 13.8848C43.1821 11.7578 41.2862 9.94041 39.0497 9.94041C36.7159 9.94041 34.8515 11.807 34.8515 14.1117C34.8489 14.6647 34.9558 15.2126 35.1659 15.7239C35.3759 16.2352 35.6851 16.6998 36.0755 17.0907C36.4658 17.4816 36.9297 17.7912 37.4402 18.0015C37.9507 18.2118 38.4977 18.3188 39.0497 18.3161C40.1677 18.3161 41.2051 17.8775 41.9506 17.1312C42.0966 17.0013 42.1939 16.8063 42.1939 16.6114C42.1939 16.2383 41.8695 15.9139 41.497 15.9139C41.2862 15.9139 41.0916 16.0433 40.9456 16.19C40.4758 16.6926 39.7785 16.92 39.0502 16.92C37.6566 16.92 36.5223 15.9636 36.2781 14.6326H42.5233C42.5279 14.6326 42.5324 14.6311 42.5365 14.6311H42.5664C42.5851 14.6295 42.6034 14.624 42.6221 14.6199C42.6312 14.6179 42.6409 14.6174 42.65 14.6148C42.8123 14.5744 42.9563 14.4803 43.0588 14.3479C43.1613 14.2155 43.2164 14.0524 43.2151 13.8848ZM39.0497 11.3202C40.3066 11.3202 41.3506 12.1273 41.7074 13.2533H36.3759C36.7322 12.1279 37.7777 11.3202 39.0497 11.3202ZM70.6194 18.2557C70.6046 18.2559 70.5899 18.2533 70.5761 18.2478C70.5623 18.2424 70.5497 18.2342 70.5391 18.2239C70.5284 18.2136 70.5199 18.2012 70.5141 18.1876C70.5082 18.174 70.5051 18.1593 70.5049 18.1445V16.9733H70.2434C70.2286 16.9731 70.214 16.9699 70.2005 16.964C70.1869 16.9581 70.1747 16.9496 70.1644 16.9389C70.1541 16.9282 70.1461 16.9157 70.1407 16.9019C70.1353 16.8881 70.1326 16.8734 70.1329 16.8586C70.1329 16.7926 70.1805 16.7434 70.2434 16.7434H70.9995C71.0624 16.7434 71.11 16.7931 71.11 16.8586C71.1104 16.8885 71.099 16.9173 71.0783 16.9388C71.0576 16.9602 71.0293 16.9727 70.9995 16.9733H70.7339V18.1445C70.7341 18.1594 70.7312 18.1743 70.7255 18.1881C70.7197 18.2019 70.7112 18.2144 70.7005 18.2249C70.6898 18.2353 70.6771 18.2435 70.6632 18.2488C70.6492 18.2542 70.6343 18.2562 70.6194 18.2557ZM71.971 18.2577C71.9082 18.2577 71.8717 18.212 71.858 18.1683L71.5326 17.2104V18.1445C71.5328 18.1594 71.5299 18.1743 71.5242 18.1881C71.5184 18.2019 71.5099 18.2144 71.4992 18.2249C71.4885 18.2353 71.4758 18.2435 71.4619 18.2488C71.4479 18.2542 71.433 18.2567 71.4181 18.2562C71.4033 18.2564 71.3885 18.2536 71.3747 18.2481C71.361 18.2426 71.3484 18.2345 71.3378 18.2241C71.3271 18.2137 71.3186 18.2013 71.3128 18.1877C71.3069 18.174 71.3038 18.1593 71.3036 18.1445V16.9089C71.3036 16.8165 71.3837 16.7363 71.4759 16.7363C71.5489 16.7363 71.6168 16.7886 71.6411 16.8632L71.971 17.8302L72.2979 16.8632C72.3091 16.8272 72.3312 16.7956 72.3612 16.7729C72.3912 16.7501 72.4275 16.7373 72.4652 16.7363C72.5564 16.7363 72.6375 16.8165 72.6375 16.9089V18.1445C72.6376 18.1594 72.6347 18.1743 72.629 18.1881C72.6232 18.2019 72.6148 18.2144 72.604 18.2249C72.5933 18.2353 72.5806 18.2435 72.5667 18.2488C72.5527 18.2542 72.5379 18.2567 72.5229 18.2562C72.508 18.2564 72.4933 18.2538 72.4794 18.2483C72.4656 18.2428 72.4529 18.2346 72.4422 18.2243C72.4315 18.2139 72.423 18.2015 72.4171 18.1878C72.4112 18.1741 72.4081 18.1594 72.4079 18.1445V17.2135L72.2168 17.7795L72.0851 18.1694C72.0597 18.2277 72.0212 18.2582 71.971 18.2582V18.2577Z" fill="#7D8999"/>
</svg>
