<svg width="75" height="21" viewBox="0 0 75 21" fill="none" xmlns="http://www.w3.org/2000/svg">
<g clip-path="url(#clip0_649_1081)">
<path d="M11.6196 14.0937C11.4347 13.9455 11.2127 13.8343 10.9537 13.7602C10.6947 13.6861 10.4358 13.6491 10.2138 13.6491C10.0288 13.6491 9.84383 13.6861 9.65885 13.7232C9.47387 13.7602 9.28889 13.8343 9.1409 13.9084C8.99292 13.9825 8.84494 14.0937 8.69695 14.2418C8.54897 14.39 8.47498 14.5382 8.40099 14.6864C8.40099 14.4271 8.327 14.2418 8.17901 14.0937C8.06803 13.9455 7.88305 13.8343 7.69807 13.7602C7.51309 13.6861 7.29111 13.6491 7.06914 13.6491C6.84716 13.6491 6.62518 13.6861 6.36621 13.7232V14.6864C6.51419 14.6864 6.66218 14.6864 6.73617 14.7235C6.84716 14.7605 6.88415 14.7976 6.92115 14.8717C6.95815 14.9457 6.99514 15.0198 6.99514 15.131C6.99514 15.2421 6.99514 15.3533 6.99514 15.5015V19.9843H8.40099V16.3906C8.40099 16.1313 8.43799 15.909 8.54897 15.7238C8.62297 15.5385 8.73395 15.3903 8.88193 15.2792C9.02992 15.168 9.2149 15.0569 9.39987 15.0199C9.58485 14.9828 9.80683 14.9087 9.99181 14.9087C10.3618 14.9087 10.6947 14.9828 10.9907 15.131L11.6196 14.0937Z" fill="#00A6CA"/>
<path d="M17.7979 19.021C17.6869 18.984 17.6499 18.9099 17.6129 18.8358C17.5759 18.7617 17.5389 18.6505 17.5389 18.5394C17.5389 18.4283 17.5389 18.3171 17.5389 18.1689V14.2418C17.1319 14.0566 16.725 13.9084 16.281 13.8343C15.8741 13.7232 15.4301 13.6861 14.9862 13.6861C14.4682 13.6861 14.0243 13.7602 13.5803 13.9084C13.1734 14.0566 12.8034 14.2789 12.4705 14.5753C12.1375 14.8717 11.9155 15.2051 11.7305 15.6497C11.5456 16.0572 11.4346 16.5388 11.4346 17.0575C11.4346 17.5021 11.4716 17.9096 11.6195 18.2801C11.7305 18.6505 11.9155 18.984 12.1375 19.2804C12.3595 19.5767 12.6554 19.799 13.0254 19.9472C13.3954 20.0954 13.8023 20.1695 14.2463 20.1695C14.6902 20.1695 15.1342 20.0584 15.5411 19.799C15.9481 19.5767 16.244 19.2433 16.392 18.7987C16.392 19.1322 16.429 19.3915 16.54 19.5767C16.651 19.762 16.762 19.9102 16.947 19.9843C17.1319 20.0954 17.3169 20.1325 17.5389 20.1325C17.7609 20.1325 17.9828 20.1324 18.2048 20.0584V19.021C18.0198 19.0581 17.8719 19.0581 17.7979 19.021ZM16.17 16.8722C16.17 17.465 16.0221 17.9096 15.7261 18.2801C15.4671 18.6505 15.0602 18.8358 14.5422 18.8358C13.9503 18.8358 13.5433 18.6505 13.2474 18.3171C12.9514 17.9837 12.8404 17.5391 12.8404 16.9463C12.8404 16.6129 12.9144 16.3165 13.0254 16.0201C13.1364 15.7608 13.2474 15.5015 13.4324 15.3162C13.6173 15.131 13.8023 14.9828 14.0613 14.8717C14.2833 14.7605 14.5792 14.7235 14.8752 14.7235C15.0602 14.7235 15.2821 14.7235 15.5041 14.7605C15.7261 14.7976 15.9481 14.8717 16.17 14.9458V16.8722Z" fill="#00A6CA"/>
<path d="M24.4942 14.4271C24.3092 14.2048 24.0502 14.0196 23.7173 13.8714C23.4213 13.7232 23.0513 13.6491 22.6074 13.6491C22.3854 13.6491 22.2004 13.6491 21.9785 13.6861C21.7565 13.7232 21.5715 13.7973 21.3865 13.8714C21.2015 13.9455 21.0166 14.0566 20.8686 14.2048C20.7206 14.353 20.5726 14.5012 20.4986 14.7235C20.4986 14.4271 20.4246 14.2048 20.3136 14.0566C20.2027 13.9084 20.0547 13.7973 19.8697 13.7232C19.6847 13.6861 19.4627 13.6491 19.2408 13.6491C19.0188 13.6491 18.7598 13.6861 18.5378 13.7232V14.6864C18.6858 14.6864 18.8338 14.6864 18.9078 14.7235C19.0188 14.7605 19.0558 14.7976 19.0928 14.8717C19.1298 14.9457 19.1668 15.0198 19.1668 15.131C19.1668 15.2421 19.1668 15.3903 19.1668 15.5756V19.9843H20.5726V16.4647C20.5726 16.2054 20.6096 15.9831 20.6836 15.7979C20.7576 15.5756 20.8686 15.4274 21.0166 15.2792C21.1645 15.131 21.3125 15.0198 21.4975 14.9458C21.6825 14.8717 21.9045 14.8346 22.1264 14.8346C22.5334 14.8346 22.9034 14.9828 23.1623 15.2421C23.4583 15.5015 23.5693 15.909 23.5693 16.3906V20.0213H24.9751V16.3906C24.9751 16.0201 24.9381 15.6497 24.8271 15.3162C24.8641 14.9458 24.7162 14.6864 24.4942 14.4271Z" fill="#00A6CA"/>
<path d="M30.7833 16.7611C30.5614 16.6129 30.2654 16.5388 29.9694 16.4647C29.6735 16.3906 29.3405 16.3536 29.0075 16.3165C28.5266 16.2424 28.1566 16.1683 27.8977 16.0942C27.6387 15.9831 27.5277 15.8349 27.5277 15.5756C27.5277 15.4274 27.5647 15.3162 27.6387 15.2051C27.7127 15.094 27.7867 15.0199 27.9347 14.9458C28.0456 14.8717 28.1936 14.7976 28.3416 14.7605C28.4896 14.7235 28.6746 14.6864 28.8226 14.6864C28.9705 14.6864 29.1555 14.6864 29.3035 14.7235C29.4885 14.7605 29.6365 14.7976 29.7475 14.8717C29.8954 14.9458 29.9694 15.0199 30.0804 15.131C30.1544 15.2421 30.2284 15.3533 30.2284 15.5015H31.4493C31.4493 15.2051 31.4123 14.9087 31.2643 14.6864C31.1163 14.4641 30.9313 14.2789 30.7094 14.0937C30.4504 13.9455 30.1914 13.7973 29.8584 13.7232C29.5255 13.6491 29.1925 13.612 28.8226 13.612C28.4896 13.612 28.1566 13.6491 27.8237 13.7232C27.4907 13.7973 27.2317 13.9084 26.9728 14.0937C26.7138 14.2419 26.5288 14.4641 26.3808 14.6864C26.2328 14.9087 26.1589 15.2051 26.1589 15.5385C26.1589 15.909 26.2698 16.1683 26.4178 16.3906C26.6028 16.6129 26.7878 16.7611 27.0468 16.8723C27.3057 16.9834 27.6017 17.0575 27.9347 17.1316C28.2676 17.1686 28.5636 17.2427 28.8966 17.2798C29.3035 17.3168 29.6365 17.428 29.8954 17.5391C30.1544 17.6503 30.2654 17.8355 30.2654 18.1319C30.2654 18.3171 30.2284 18.4653 30.1174 18.6135C30.0064 18.7246 29.8954 18.8358 29.7845 18.9099C29.6365 18.984 29.4885 19.021 29.3035 19.0581C29.1185 19.0951 28.9705 19.0951 28.7856 19.0951C28.6006 19.0951 28.4526 19.0581 28.2676 19.0581C28.1196 19.021 27.9717 18.9469 27.8237 18.8728C27.6757 18.7987 27.6017 18.6876 27.4907 18.5764C27.4167 18.4653 27.3427 18.3171 27.3427 18.1689H25.9739C26.0109 18.5394 26.0849 18.8728 26.2698 19.1322C26.4548 19.3915 26.6398 19.5767 26.9358 19.7249C27.1947 19.8731 27.4907 19.9843 27.8237 20.0584C28.1566 20.1325 28.4896 20.1695 28.8226 20.1695C29.1555 20.1695 29.4885 20.1325 29.8215 20.0584C30.1544 19.9843 30.4504 19.8731 30.6724 19.6879C30.8943 19.5026 31.1163 19.3174 31.2643 19.0951C31.4123 18.8358 31.4863 18.5394 31.4863 18.206C31.4863 17.8355 31.4123 17.5391 31.2643 17.3168C31.1903 17.0575 31.0053 16.9093 30.7833 16.7611Z" fill="#00A6CA"/>
<path d="M46.4696 14.4271C46.2847 14.2048 46.0257 14.0196 45.6927 13.8714C45.3968 13.7232 45.0268 13.6491 44.5828 13.6491C44.3609 13.6491 44.1759 13.6491 43.9539 13.6861C43.7319 13.7232 43.547 13.7973 43.362 13.8714C43.177 13.9455 42.992 14.0566 42.844 14.2048C42.6961 14.353 42.5481 14.5012 42.4741 14.7235C42.4741 14.4271 42.4001 14.2048 42.2891 14.0566C42.1781 13.9084 42.0301 13.7973 41.8452 13.7232C41.6602 13.6861 41.4382 13.6491 41.2162 13.6491C40.9942 13.6491 40.7353 13.6861 40.5503 13.7232V14.6864C40.6983 14.6864 40.8463 14.6864 40.9203 14.7235C41.0312 14.7605 41.0682 14.7976 41.1052 14.8717C41.1422 14.9457 41.1792 15.0198 41.1792 15.131C41.1792 15.2421 41.1792 15.3903 41.1792 15.5756V19.9843H42.5851V16.4647C42.5851 16.2054 42.6221 15.9831 42.6961 15.7979C42.77 15.5756 42.881 15.4274 43.029 15.2792C43.177 15.131 43.325 15.0198 43.51 14.9458C43.6949 14.8717 43.9169 14.8346 44.1389 14.8346C44.5458 14.8346 44.9158 14.9828 45.1748 15.2421C45.4708 15.5015 45.5817 15.909 45.5817 16.3906V20.0213H46.9876V16.3906C46.9876 16.0201 46.9506 15.6497 46.8396 15.3162C46.8396 14.9458 46.6916 14.6864 46.4696 14.4271Z" fill="#00A6CA"/>
<path d="M48.9486 11.0557C48.7266 11.0557 48.5416 11.1298 48.3566 11.278C48.1717 11.4262 48.0977 11.6114 48.0977 11.9078C48.0977 12.2042 48.2086 12.3894 48.3566 12.5376C48.5416 12.6858 48.7266 12.7599 48.9486 12.7229C49.1705 12.7229 49.3555 12.6488 49.5035 12.5006C49.6885 12.3524 49.7625 12.1672 49.7625 11.8708C49.7625 11.5744 49.6885 11.3892 49.5035 11.241C49.3555 11.0928 49.1705 11.0557 48.9486 11.0557Z" fill="#00A6CA"/>
<path d="M49.6515 13.7973H48.2456V20.0213H49.6515V13.7973Z" fill="#00A6CA"/>
<path d="M56.1997 14.4641C55.9037 14.2048 55.5337 14.0196 55.1268 13.8714C54.7198 13.7232 54.3129 13.6861 53.8689 13.6861C53.462 13.6861 53.055 13.7602 52.6851 13.8714C52.3151 14.0196 51.9451 14.2048 51.6492 14.4641C51.3532 14.7235 51.0942 15.0569 50.9093 15.4644C50.7243 15.8719 50.6133 16.3165 50.6133 16.8722C50.6133 17.428 50.7243 17.9096 50.9093 18.2801C51.0942 18.6876 51.3532 19.021 51.6492 19.3174C51.9451 19.5767 52.3151 19.799 52.6851 19.9102C53.092 20.0584 53.462 20.0954 53.9059 20.0954C54.3129 20.0954 54.7198 20.0213 55.1268 19.9102C55.5337 19.799 55.8667 19.5767 56.1627 19.3174C56.4586 19.0581 56.7176 18.7246 56.9026 18.2801C57.0876 17.8725 57.1986 17.3909 57.1986 16.8722C57.1986 16.3165 57.0876 15.8719 56.9026 15.4644C56.7546 15.0569 56.4956 14.7235 56.1997 14.4641ZM55.6447 17.7614C55.5337 18.0207 55.3858 18.206 55.2378 18.3912C55.0898 18.5764 54.8678 18.6876 54.6458 18.7617C54.4239 18.8358 54.2019 18.9099 53.9799 18.9099C53.7579 18.9099 53.499 18.8728 53.277 18.7987C53.055 18.7246 52.833 18.5764 52.6851 18.4282C52.5001 18.243 52.3521 18.0578 52.2411 17.7984C52.1301 17.5391 52.0931 17.2427 52.0931 16.9093C52.0931 16.5759 52.1301 16.3165 52.2411 16.0572C52.3521 15.7979 52.4631 15.6126 52.6481 15.4644C52.833 15.3162 53.018 15.168 53.24 15.0939C53.462 15.0198 53.684 14.9828 53.9059 14.9458C54.1279 14.9458 54.3869 14.9828 54.6088 15.0569C54.8308 15.131 55.0528 15.2421 55.2378 15.4274C55.4227 15.5756 55.5707 15.7979 55.6817 16.0572C55.7927 16.3165 55.8667 16.6129 55.8667 16.9463C55.8297 17.2057 55.7557 17.5021 55.6447 17.7614Z" fill="#00A6CA"/>
<path d="M0.372803 12.3154V10.9816H7.06907V12.3154H4.44235V20.0213H2.96252V12.3154H0.372803Z" fill="#00A6CA"/>
<path d="M32.6333 16.9834V10.9816H34.1131V16.9463C34.1131 18.1319 35.001 18.7987 36.1479 18.7987C37.2948 18.7987 38.1457 18.1319 38.1457 16.9463V10.9816H39.6255V16.9834C39.6255 18.984 38.0347 20.1325 36.1479 20.1325C34.2241 20.1325 32.6333 18.984 32.6333 16.9834Z" fill="#00A6CA"/>
<path d="M64.1907 18.5394V17.5391V16.3165C64.1907 15.9461 64.1537 15.5756 64.0427 15.2421C63.9318 14.9087 63.7838 14.6494 63.5988 14.39C63.4138 14.1678 63.1548 13.9825 62.8219 13.8343C62.5259 13.6861 62.1559 13.612 61.712 13.612C61.49 13.612 61.305 13.612 61.0831 13.6491C60.8611 13.6861 60.6761 13.7602 60.4911 13.8343C60.3062 13.9084 60.1212 14.0196 59.9732 14.1677C59.8252 14.3159 59.6772 14.4641 59.6032 14.6864C59.6032 14.39 59.5292 14.1678 59.4183 14.0196C59.3073 13.8714 59.1593 13.7602 58.9743 13.6861C58.7893 13.6491 58.5674 13.612 58.3454 13.612C58.1234 13.612 57.8644 13.6491 57.6794 13.6861V14.6494C57.8274 14.6494 57.9754 14.6494 58.0494 14.6864C58.1604 14.7235 58.1974 14.7605 58.2344 14.8346C58.2714 14.9087 58.3084 14.9828 58.3084 15.0939C58.3084 15.2051 58.3084 15.3533 58.3084 15.5385V19.9472H59.7142V16.4277C59.7142 16.1683 59.7512 15.9461 59.8252 15.7608C59.8992 15.5385 60.0102 15.3903 60.1582 15.2421C60.3062 15.0939 60.4541 14.9828 60.6391 14.9087C60.8241 14.8346 61.0461 14.7976 61.2681 14.7976C61.675 14.7976 62.045 14.9458 62.3039 15.2051C62.5999 15.4644 62.7109 15.8719 62.7109 16.3536V18.4653V18.6135C62.7109 20.1325 63.6358 20.2806 64.8566 20.0584V19.1692C64.3017 19.2063 64.1907 19.021 64.1907 18.5394Z" fill="#00A6CA"/>
<path d="M67.8533 0.830505C65.4486 0.830505 63.3398 2.12719 62.2299 4.09073C61.823 4.86873 61.749 5.53559 62.0819 6.09131C62.4519 6.75817 63.3028 6.83227 63.7468 6.83227H64.5607L64.2647 7.75846C64.0797 8.31418 64.1537 8.94399 64.4497 9.35152C64.7457 9.75904 65.1896 9.98134 65.7445 9.98134C66.1145 9.98134 66.5214 9.90724 66.8914 9.75905C66.7804 9.61085 66.7064 9.46267 66.6324 9.27743C66.5954 9.12924 66.5214 8.98104 66.5214 8.7958C66.2995 8.90694 66.0405 8.94399 65.7815 8.94399C65.6335 8.94399 65.4116 8.90695 65.3006 8.72171C65.1896 8.57352 65.1526 8.35123 65.2266 8.09189L65.6335 6.83227H66.9284L67.2614 5.75788H66.0035L66.5584 4.01662H65.4486L64.8936 5.75788H63.7098C63.3398 5.75788 63.1178 5.64673 63.0068 5.46149C62.8958 5.2392 63.0068 4.79463 63.3028 4.27596V4.23891C64.3017 2.79405 65.9295 1.8308 67.8163 1.8308C70.813 1.8308 73.2547 4.27596 73.2547 7.27683C73.2547 10.2777 70.813 12.7229 67.8163 12.7229C65.1526 12.7229 62.9328 10.7964 62.4519 8.27713L61.416 8.49942C62.008 11.5003 64.6347 13.7973 67.8163 13.7973C71.4049 13.7973 74.3276 10.8705 74.3276 7.27683C74.3646 3.75729 71.4419 0.830505 67.8533 0.830505Z" fill="#00A6CA"/>
<path d="M71.997 9.12923C71.738 9.12923 71.405 9.09218 71.1831 8.94399C71.1091 8.8699 70.9981 8.7958 70.9611 8.61056C70.9611 8.53647 70.9611 8.42533 70.9981 8.31418L71.812 5.83197H70.7021L69.9992 7.98076C69.8142 8.53647 69.2223 8.98104 68.7043 8.98104C68.5564 8.98104 68.3714 8.94399 68.2974 8.7958C68.2234 8.68466 68.1494 8.53647 68.2604 8.27713L69.0743 5.79492H67.9644L67.2615 7.94371C67.0765 8.46238 67.1505 9.01809 67.4465 9.42562C67.7424 9.7961 68.1494 10.0184 68.7043 10.0184C69.2223 10.0184 69.7772 9.7961 70.2212 9.42562C70.3691 9.64791 70.5541 9.79609 70.8131 9.90724C71.1831 10.0184 71.405 10.0184 71.664 10.0184C71.775 10.0184 71.923 9.98134 71.96 9.98134C71.997 9.94429 71.997 9.90724 72.034 9.87019C72.071 9.79609 72.108 9.72201 72.145 9.64791C72.182 9.57381 72.2189 9.49972 72.2559 9.42562C72.2929 9.35152 72.3299 9.27743 72.3669 9.20333C72.4039 9.16628 72.4039 9.09219 72.4409 9.05514C72.3299 9.12924 72.182 9.12923 71.997 9.12923Z" fill="#00A6CA"/>
<path d="M65.6335 19.2804C65.6335 18.1689 67.2984 18.1689 67.2984 19.2804C67.2984 20.3918 65.6335 20.3918 65.6335 19.2804ZM67.1504 19.2804C67.1504 18.3171 65.7815 18.3171 65.7815 19.2804C65.7815 20.2436 67.1504 20.2436 67.1504 19.2804ZM66.8174 19.6508L66.6694 19.6879L66.4475 19.3915H66.2625V19.6879H66.1515V18.8728H66.4845C66.6324 18.8728 66.7804 18.984 66.7804 19.1322C66.7804 19.2433 66.7064 19.3544 66.5954 19.3544L66.8174 19.6508ZM66.2995 19.2804H66.4845C66.5954 19.2804 66.6694 19.2062 66.6694 19.1322C66.6694 19.021 66.5954 18.984 66.4845 18.984H66.2995V19.2804Z" fill="#00A6CA"/>
</g>
<defs>
<clipPath id="clip0_649_1081">
<rect width="73.9918" height="19.6354" fill="white" transform="translate(0.372803 0.682312)"/>
</clipPath>
</defs>
</svg>
